<svg width="43" height="34" viewBox="0 0 43 34" fill="none" xmlns="http://www.w3.org/2000/svg">
<path d="M0.5 8.14062V28.9776C0.5 31.7325 2.73635 33.9659 5.49501 33.9659C8.25367 33.9659 10.49 31.7325 10.49 28.9776V8.14062H0.5Z" fill="#1CFF1D"/>
<path d="M15.6135 8.14062L12.4932 28.7347C12.0734 31.5053 14.2184 33.9998 17.0207 33.9998H21.8602C24.6503 33.9998 26.7918 31.5258 26.3921 28.7645L23.4061 8.14062H15.6135Z" fill="#1CFF1D"/>
<path d="M29.553 8.14062C29.2367 9.12207 29.0728 10.1525 29.0728 11.196V28.9252C29.0728 31.7278 31.3448 33.9998 34.1474 33.9998H37.4459C40.2485 33.9998 42.5205 31.7278 42.5205 28.9252V11.0123C42.5205 10.0317 42.3669 9.06321 42.0702 8.14062H29.553Z" fill="#1CFF1D"/>
<path d="M0.5 13.5679V28.9776C0.5 31.7326 2.73635 33.9659 5.49501 33.9659C8.25367 33.9659 10.49 31.7326 10.49 28.9776V13.5679H0.5Z" fill="#FFBC10"/>
<path d="M14.7912 13.5679L12.4932 28.7347C12.0734 31.5053 14.2184 33.9998 17.0207 33.9998H21.8602C24.6503 33.9998 26.7918 31.5259 26.3921 28.7646L24.1919 13.5679H14.7912Z" fill="#FFBC10"/>
<path d="M29.0728 13.5679V28.9252C29.0728 31.7278 31.3448 33.9998 34.1474 33.9998H37.4459C40.2485 33.9998 42.5205 31.7278 42.5205 28.9252V13.5679H29.0728Z" fill="#FFBC10"/>
<path d="M0.753731 28.9778V0.253731H10.2363V28.9778C10.2363 31.5923 8.11386 33.7123 5.49501 33.7123C2.87616 33.7123 0.753731 31.5923 0.753731 28.9778Z" fill="white" fill-opacity="0.1" stroke="white" stroke-width="0.507463"/>
<path opacity="0.15" d="M8.95764 27.7205V0.76123H7.84308V27.7205C7.84308 30.3101 7.10004 31.1512 6.72852 31.9702C8.95764 31.1734 9.1434 28.6722 8.95764 27.7205Z" fill="white"/>
<path d="M12.7439 28.7729L17.065 0.253731H22.0077L26.1408 28.8011C26.5184 31.4094 24.4955 33.7463 21.86 33.7463H17.0205C14.3735 33.7463 12.3474 31.39 12.7439 28.7729Z" fill="white" fill-opacity="0.1" stroke="white" stroke-width="0.507463"/>
<path opacity="0.15" d="M24.5625 27.9814L20.968 1.26285L19.8634 1.41145L23.4579 28.13C23.8032 30.6965 23.1789 31.6292 22.9199 32.4904C25.0229 31.4034 24.8735 28.8999 24.5625 27.9814Z" fill="white"/>
<path d="M31.4571 3.07831L30.4482 0.253731H41.3969L40.268 3.342C39.9747 4.14432 40.0944 5.03953 40.5882 5.73664C41.6806 7.27902 42.2673 9.12246 42.2673 11.0125V28.9254C42.2673 31.5879 40.1089 33.7463 37.4464 33.7463H34.1479C31.4854 33.7463 29.327 31.5879 29.327 28.9254V11.1962C29.327 9.18664 29.9508 7.22665 31.1122 5.58676C31.6292 4.85682 31.7579 3.92068 31.4571 3.07831Z" fill="white" fill-opacity="0.1" stroke="white" stroke-width="0.507463"/>
<path opacity="0.15" d="M40.8102 7.86583V27.2131C40.9959 28.1649 40.8102 30.666 38.5811 31.4628C38.9526 30.6439 39.6956 29.8028 39.6956 27.2131V7.86583C38.7743 6.38573 38.1497 2.96882 39.4691 1.64941C39.2214 2.4529 38.4323 4.92255 40.8102 7.86583Z" fill="white"/>
<path d="M0.5 21.709V28.9779C0.5 31.7328 2.73635 33.9661 5.49501 33.9661C8.25367 33.9661 10.49 31.7328 10.49 28.9779V21.709H0.5Z" fill="#00C2FF"/>
<path d="M13.5578 21.709L12.4932 28.735C12.0734 31.5056 14.2184 34.0001 17.0207 34.0001H21.8602C24.6503 34.0001 26.7918 31.5261 26.3921 28.7648L25.3705 21.709H19.4641H13.5578Z" fill="#00C2FF"/>
<path d="M29.0728 21.709V28.9254C29.0728 31.7281 31.3448 34.0001 34.1474 34.0001H37.4459C40.2485 34.0001 42.5205 31.7281 42.5205 28.9255V21.709H29.0728Z" fill="#00C2FF"/>
</svg>
